Coordinates
version=1
nRows=12
nColumns=46
inDegrees=yes

Units are S.I. units (second, meters, Newtons, ...)
Angles are in degrees.

endheader
time	pelvis_tilt	pelvis_list	pelvis_rotation	pelvis_tx	pelvis_ty	pelvis_tz	bb_angle	bb_tx	bb_ty	bb_tz	hip_flexion_r	hip_adduction_r	hip_rotation_r	knee_angle_r	knee_angle_r_beta	ankle_angle_r	subtalar_angle_r	mtp_angle_r	crank_angle_r	hip_flexion_l	hip_adduction_l	hip_rotation_l	knee_angle_l	knee_angle_l_beta	ankle_angle_l	subtalar_angle_l	mtp_angle_l	crank_angle_l	lumbar_extension	lumbar_bending	lumbar_rotation	arm_flex_r	arm_add_r	arm_rot_r	elbow_flex_r	pro_sup_r	wrist_flex_r	wrist_dev_r	arm_flex_l	arm_add_l	arm_rot_l	elbow_flex_l	pro_sup_l	wrist_flex_l	wrist_dev_l
      7.50000000	    -15.39421990	     -8.58228091	      3.68461229	      0.10988009	      1.07792372	     -0.27401606	      0.00000000	      0.50000000	      0.00000000	      0.25000000	     90.01845805	     -4.00326359	     -1.49297234	    117.84807116	      2.05683686	     15.98969706	     -8.58945789	      0.00000000	      0.00000000	     45.91255657	     -8.30678563	      3.78452737	     38.14530396	      0.66576115	     -6.75360325	     -6.82156662	      0.00000000	      0.00000000	    -59.96116819	      4.25979848	     22.01975402	    -59.50430599	   -119.79428974	    -83.24495362	     74.56543813	     24.26124939	      0.00000000	      0.00000000	     89.82817680	     13.40344105	     33.31206128	     40.05081465	     19.50455657	      0.00000000	      0.00000000
      7.50500000	    -15.54761408	     -8.81101408	      3.70501645	      0.10893794	      1.07935041	     -0.27451966	      0.00000000	      0.50000000	      0.00000000	      0.25000000	     90.66869575	     -3.96099219	     -1.59807190	    117.33771000	      2.04792938	     15.06967533	     -8.80083758	      0.00000000	      0.00000000	     45.86276046	     -8.47695429	      3.87998294	     38.09829249	      0.66494064	     -7.24967747	     -6.87811648	      0.00000000	      0.00000000	    -59.96269359	      4.50495629	     22.32405457	    -59.41273295	   -119.79562320	    -83.36415148	     74.48968805	     24.21545812	      0.00000000	      0.00000000	     89.83051163	     13.62369465	     33.06649857	     40.10197530	     19.47162598	      0.00000000	      0.00000000
      7.51000000	    -15.70491653	     -9.00806984	      3.72331324	      0.10789367	      1.08072004	     -0.27504127	      0.00000000	      0.50000000	      0.00000000	      0.25000000	     91.27353674	     -3.92631442	     -1.68416583	    116.80355474	      2.03860661	     14.23456916	     -9.01450550	      0.00000000	      0.00000000	     45.87550639	     -8.61008869	      3.96198483	     38.10777781	      0.66510619	     -7.74790509	     -6.91959125	      0.00000000	      0.00000000	    -59.93009575	      4.69550679	     22.58450842	    -59.31816683	   -119.79628662	    -83.47029588	     74.41094590	     24.17343057	      0.00000000	      0.00000000	     89.83178623	     13.84010947	     32.85181295	     40.11837374	     19.43687687	      0.00000000	      0.00000000
      7.51500000	    -15.88777997	     -9.17847652	      3.75621625	      0.10687506	      1.08199590	     -0.27557477	      0.00000000	      0.50000000	      0.00000000	      0.25000000	     91.84222050	     -3.92173269	     -1.72893736	    116.25914198	      2.02910481	     13.46821041	     -9.17550355	      0.00000000	      0.00000000	     45.95590036	     -8.70995071	      4.00679300	     38.15155677	      0.66587028	     -8.23247573	     -6.98053320	      0.00000000	      0.00000000	    -59.87795343	      4.90193787	     22.81686276	    -59.20201602	   -119.79772264	    -83.57736667	     74.30956461	     24.12919615	      0.00000000	      0.00000000	     89.83302354	     14.07795068	     32.65256653	     40.08026363	     19.39413008	      0.00000000	      0.00000000
      7.52000000	    -16.33241526	     -9.50613180	      3.78292400	      0.10567447	      1.08274906	     -0.27602571	      0.00000000	      0.50000000	      0.00000000	      0.25000000	     92.64892787	     -3.88486812	     -1.93328652	    115.67436818	      2.01889858	     12.24964400	    -10.10232445	      0.00000000	      0.00000000	     46.45122402	     -8.86689171	      4.24652644	     38.27916755	      0.66809751	     -8.90836165	     -7.43442254	      0.00000000	      0.00000000	    -59.48362226	      5.20207598	     23.26127528	    -59.21063690	   -119.79821264	    -83.61296922	     73.94411259	     23.96857121	      0.00000000	      0.00000000	     89.83393746	     14.70836949	     31.82886340	     39.76264813	     19.17731846	      0.00000000	      0.00000000
      7.52500000	    -16.44392806	     -9.59323398	      3.84400543	      0.10465841	      1.08402126	     -0.27660839	      0.00000000	      0.50000000	      0.00000000	      0.25000000	     93.01741800	     -3.91148713	     -1.85854183	    115.15773123	      2.00988157	     11.64755913	     -9.92418882	      0.00000000	      0.00000000	     46.49810519	     -8.89737668	      4.21879807	     38.31949726	      0.66880139	     -9.32526707	     -7.31257363	      0.00000000	      0.00000000	    -59.48223189	      5.35199077	     23.38227186	    -59.09605703	   -119.79877071	    -83.68770585	     73.88181886	     23.93428170	      0.00000000	      0.00000000	     89.83598126	     14.91762636	     31.71519748	     39.76510497	     19.14456110	      0.00000000	      0.00000000
      7.53000000	    -16.68348922	     -9.72694413	      3.91859450	      0.10355048	      1.08498158	     -0.27716901	      0.00000000	      0.50000000	      0.00000000	      0.25000000	     93.47538901	     -3.96382362	     -1.84272938	    114.62979931	      2.00066742	     10.98362897	     -9.96400367	      0.00000000	      0.00000000	     46.75819029	     -8.92105396	      4.25303847	     38.39139711	      0.67005628	     -9.90279152	     -7.34482451	      0.00000000	      0.00000000	    -59.31692765	      5.52587604	     23.57691728	    -58.98923869	   -119.79951308	    -83.71246802	     73.64888843	     23.86215120	      0.00000000	      0.00000000	     89.83790967	     15.17218769	     31.50248668	     39.74166692	     19.08949675	      0.00000000	      0.00000000
      7.53500000	    -17.01100799	     -9.91299266	      4.04111218	      0.10227072	      1.08564273	     -0.27776108	      0.00000000	      0.50000000	      0.00000000	      0.25000000	     93.97311760	     -4.04874273	     -1.89990172	    114.10045641	      1.99142864	     10.32774898	    -10.46728529	      0.00000000	      0.00000000	     47.20039062	     -8.91034695	      4.41938966	     38.53614360	      0.67258259	    -10.43373290	     -7.61608309	      0.00000000	      0.00000000	    -59.00940009	      5.75779227	     23.81087739	    -58.86857416	   -119.80088577	    -83.50382135	     73.17754601	     23.65252094	      0.00000000	      0.00000000	     89.83965818	     15.85313720	     30.62290661	     39.40317269	     18.77425516	      0.00000000	      0.00000000
      7.54000000	    -17.20099454	    -10.02741437	      4.18189050	      0.10113155	      1.08646130	     -0.27837422	      0.00000000	      0.50000000	      0.00000000	      0.25000000	     94.25448041	     -4.15792364	     -1.87542625	    113.62964318	      1.98321140	      9.99976994	    -10.47607598	      0.00000000	      0.00000000	     47.46956835	     -8.87706619	      4.46629475	     38.60919215	      0.67385752	    -10.95611440	     -7.66464511	      0.00000000	      0.00000000	    -58.86878304	      5.94908368	     23.93507166	    -58.59658702	   -119.80171932	    -83.24556080	     72.97372851	     23.27834705	      0.00000000	      0.00000000	     89.84105212	     16.22228859	     30.16615778	     39.69316567	     17.13887980	      0.00000000	      0.00000000
      7.54500000	    -17.38412840	    -10.12785915	      4.34134770	      0.09998210	      1.08714803	     -0.27891368	      0.00000000	      0.50000000	      0.00000000	      0.25000000	     94.47466345	     -4.27527955	     -1.86042218	    113.19370219	      1.97560280	      9.79518470	    -10.56553228	      0.00000000	      0.00000000	     47.73746829	     -8.82587774	      4.51031116	     38.65246071	      0.67461270	    -11.41820933	     -7.67730089	      0.00000000	      0.00000000	    -58.70840722	      6.12915789	     24.03838317	    -58.43238572	   -119.80300376	    -83.14808047	     72.48813049	     24.28698776	      0.00000000	      0.00000000	     89.84286117	     16.63460048	     29.56937589	     39.41425802	     18.18587674	      0.00000000	      0.00000000
      7.55000000	    -17.57251466	    -10.23076820	      4.51808793	      0.09887244	      1.08770113	     -0.27938994	      0.00000000	      0.50000000	      0.00000000	      0.25000000	     94.65580138	     -4.39513827	     -1.84861068	    112.80753127	      1.96886284	      9.71666418	    -10.61979966	      0.00000000	      0.00000000	     48.05295234	     -8.78742820	      4.52870258	     38.72034015	      0.67579742	    -11.89166167	     -7.54371668	      0.00000000	      0.00000000	    -58.49657966	      6.33206514	     24.13397432	    -58.19442743	   -119.80547699	    -82.93121172	     71.63576784	     27.26634904	      0.00000000	      0.00000000	     89.84608089	     16.65207450	     30.32841613	     38.54236763	     22.04430800	      0.00000000	      0.00000000
      7.55500000	    -17.72299133	    -10.29700854	      4.71850031	      0.09778401	      1.08818610	     -0.27982722	      0.00000000	      0.50000000	      0.00000000	      0.25000000	     94.74809430	     -4.55051867	     -1.84793445	    112.47023884	      1.96297598	      9.83006008	    -10.71468608	      0.00000000	      0.00000000	     48.31159044	     -8.70389478	      4.52389857	     38.72503525	      0.67587937	    -12.36562413	     -7.54866735	      0.00000000	      0.00000000	    -58.34273634	      6.49664701	     24.16510269	    -58.05338322	   -119.80584246	    -82.94741141	     71.07194597	     29.24367321	      0.00000000	      0.00000000	     89.84837978	     16.94266124	     29.90311253	     38.05239020	     24.45176719	      0.00000000	      0.00000000
